<?xml version="1.0" standalone="no"?>
<!DOCTYPE svg PUBLIC "-//W3C//DTD SVG 20010904//EN"
 "http://www.w3.org/TR/2001/REC-SVG-20010904/DTD/svg10.dtd">
<svg version="1.0" xmlns="http://www.w3.org/2000/svg"
 width="1024.000000pt" height="1024.000000pt" viewBox="0 0 1024.000000 1024.000000"
 preserveAspectRatio="xMidYMid meet">
<metadata>
Created by potrace 1.11, written by Peter Selinger 2001-2013
</metadata>
<g transform="translate(0.000000,1024.000000) scale(0.100000,-0.100000)"
fill="#000000" stroke="none">
<path d="M4875 9014 c-791 -64 -1480 -318 -2081 -768 -953 -713 -1519 -1786
-1571 -2973 l-6 -153 500 0 500 0 7 138 c13 276 73 583 162 832 61 170 205
460 301 605 127 192 215 299 387 471 250 249 464 403 771 554 291 143 542 222
865 271 122 19 186 23 410 23 224 0 288 -4 410 -23 323 -49 574 -128 865 -271
307 -151 521 -305 771 -554 249 -250 403 -464 554 -771 143 -291 222 -542 271
-865 19 -122 23 -186 23 -410 0 -300 -16 -437 -80 -700 -92 -377 -281 -762
-534 -1090 -94 -122 -368 -396 -490 -490 -239 -184 -553 -358 -820 -454 -368
-131 -812 -189 -1200 -155 -85 7 -173 13 -194 13 l-40 1 -76 -485 c-43 -267
-76 -487 -74 -488 1 -2 46 -10 100 -17 475 -67 1018 -33 1494 91 1368 358
2436 1426 2794 2794 88 336 120 601 120 980 0 305 -12 446 -60 710 -233 1275
-1110 2368 -2309 2878 -343 146 -700 240 -1085 287 -129 16 -572 28 -685 19z"/>
</g>
</svg>
